<svg width="1280" height="720" xmlns="http://www.w3.org/2000/svg" xmlns:xlink="http://www.w3.org/1999/xlink" overflow="hidden"><defs><clipPath id="clip0"><rect x="0" y="0" width="1280" height="720"/></clipPath><clipPath id="clip1"><rect x="50" y="450" width="138" height="143"/></clipPath><clipPath id="clip2"><rect x="50" y="450" width="138" height="143"/></clipPath><clipPath id="clip3"><rect x="50" y="450" width="138" height="143"/></clipPath><clipPath id="clip4"><rect x="1107" y="323" width="153" height="153"/></clipPath><clipPath id="clip5"><rect x="1107" y="323" width="153" height="153"/></clipPath><clipPath id="clip6"><rect x="1107" y="323" width="153" height="153"/></clipPath></defs><g clip-path="url(#clip0)"><rect x="0" y="0" width="1280" height="720" fill="#FFFFFF"/><rect x="29.5001" y="420.5" width="165" height="163" stroke="#000000" stroke-width="3" stroke-miterlimit="8" fill="#FFFFFF"/><text font-family="DFKai-SB,DFKai-SB_MSFontService,sans-serif" font-weight="400" font-size="27" transform="translate(45.6593 454)">字型控制點</text><g clip-path="url(#clip1)"><g clip-path="url(#clip2)"><g clip-path="url(#clip3)"><path d="M55.6582 26.4949C55.9277 32.1551 56.6689 37.8826 57.8818 43.6776 51.4131 45.2947 44.6074 46.3728 37.4649 46.9119 36.1172 47.5857 34.9043 48.4617 33.8261 49.5399 33.5566 50.2136 33.6914 50.8201 34.2305 51.3592 34.6348 50.8201 35.3086 50.618 36.252 50.7527 36.5215 51.2918 36.791 51.9656 37.0605 52.7742 43.664 50.8875 50.6045 49.6746 57.8818 49.1355 58.2862 50.0789 58.7578 51.157 59.2969 52.3699 54.4453 60.5906 49.5938 68.7439 44.7422 76.8301 41.2383 81.2772 37.2627 85.253 32.8154 88.7568 31.1982 90.1043 30.457 91.9239 30.5918 94.2147 31.1309 94.4845 31.6699 94.8888 32.209 95.4277 36.3867 91.9239 40.4971 88.0157 44.5401 83.7032 47.7744 78.8511 51.2783 74.1343 55.0518 69.5527 56.9385 71.17 59.1621 72.3155 61.7226 72.9889 62.8008 83.9054 62.7334 94.7536 61.5205 105.535 62.1943 105.805 63.0703 105.939 64.1485 105.939 64.8223 105.266 65.4287 104.524 65.9678 103.715 65.833 93.2038 66.1025 83.1636 66.7763 73.5954 73.5147 75.4825 79.7812 78.649 85.5759 83.0967 92.5842 85.1177 98.8508 87.274 104.376 89.5654 106.533 87.9481 107.408 86.0616 107.004 83.9054 93.3929 79.862 79.4445 74.6739 65.1592 68.3397 64.3506 62.41 63.542 56.4803 62.7334 50.5506 63.0029 49.4725 63.6094 48.5291 64.5527 47.7205 69.2698 46.9119 74.1888 46.4402 79.3093 46.3055 80.6575 45.0926 81.5332 43.8123 81.9375 42.4647 81.6677 41.7908 81.2634 41.3191 80.7245 41.0496 74.5255 42.3973 68.461 43.3406 62.5312 43.8797 61.1836 37.5457 59.9033 31.2791 58.6904 25.0799 57.208 24.9451 56.1973 25.4168 55.6582 26.4949M60.1055 60.0515C60.375 61.9383 60.7119 63.8924 61.1162 65.9138 60.7119 66.3182 60.2402 66.8572 59.7011 67.5311 58.623 67.2615 57.6123 66.992 56.6689 66.7225 57.0732 64.2967 58.2188 62.073 60.1055 60.0515" transform="matrix(1 0 0 1.03623 50 450)"/></g></g></g><rect x="240.5" y="450.5" width="209" height="103" stroke="#000000" stroke-width="3" stroke-miterlimit="8" fill="#FFFFFF"/><text font-family="DFKai-SB,DFKai-SB_MSFontService,sans-serif" font-weight="400" font-size="27" transform="translate(251.187 497)">可微分光柵化器<tspan font-family="Times New Roman,Times New Roman_MSFontService,sans-serif" font-size="24" x="56.2133" y="29">(</tspan><tspan font-family="Times New Roman,Times New Roman_MSFontService,sans-serif" font-size="24" x="64.2133" y="29">diffvg</tspan><tspan font-family="Times New Roman,Times New Roman_MSFontService,sans-serif" font-size="24" x="122.447" y="29">)</tspan></text><path d="M194.5 500 233.126 500 233.126 503 194.5 503ZM231.626 497 240.626 501.5 231.626 506Z"/><rect x="481.5" y="449.5" width="209" height="103" stroke="#000000" stroke-width="3" stroke-miterlimit="8" fill="#FFFFFF"/><text font-family="Times New Roman,Times New Roman_MSFontService,sans-serif" font-weight="700" font-size="27" transform="translate(553.644 494)">CLIP<tspan font-family="DFKai-SB,DFKai-SB_MSFontService,sans-serif" font-weight="400" font-size="27" x="-34.7467" y="32">影像編碼器</tspan></text><path d="M0.0451751-1.49932 24.6122-0.759106 24.5219 2.23953-0.0451751 1.49932ZM23.2032-3.80292 32.0636 0.966089 22.9322 5.193Z" transform="matrix(1 0 0 -1 449.5 501.466)"/><rect x="125.5" y="124.5" width="290" height="103" stroke="#000000" stroke-width="3" stroke-miterlimit="8" fill="#FFFFFF"/><text font-family="DFKai-SB,DFKai-SB_MSFontService,sans-serif" font-weight="400" font-size="24" transform="translate(209.739 171)">目標提示詞<tspan font-family="Times New Roman,Times New Roman_MSFontService,sans-serif" font-size="21" x="-42.8333" y="26">“</tspan><tspan font-family="Times New Roman,Times New Roman_MSFontService,sans-serif" font-size="21" x="-33.3333" y="26">thin,light,handwriting</tspan><tspan font-family="Times New Roman,Times New Roman_MSFontService,sans-serif" font-size="21" x="153.333" y="26">”</tspan></text><rect x="125.5" y="270.5" width="290" height="102" stroke="#000000" stroke-width="3" stroke-miterlimit="8" fill="#FFFFFF"/><text font-family="DFKai-SB,DFKai-SB_MSFontService,sans-serif" font-weight="400" font-size="27" transform="translate(203.072 315)">參考提示詞<tspan font-family="Times New Roman,Times New Roman_MSFontService,sans-serif" font-size="27" x="-44.8333" y="32">“</tspan><tspan font-family="Times New Roman,Times New Roman_MSFontService,sans-serif" font-size="27" x="-33" y="32">formal,legible</tspan><tspan font-family="Times New Roman,Times New Roman_MSFontService,sans-serif" font-size="27" x="123.5" y="32">font”</tspan></text><rect x="477.5" y="203.5" width="209" height="103" stroke="#000000" stroke-width="3" stroke-miterlimit="8" fill="#FFFFFF"/><text font-family="Times New Roman,Times New Roman_MSFontService,sans-serif" font-weight="700" font-size="27" transform="translate(549.305 249)">CLIP<tspan font-family="DFKai-SB,DFKai-SB_MSFontService,sans-serif" font-weight="400" font-size="27" x="-34.7466" y="32">文字編碼器</tspan></text><path d="M416.682 174.576 474.058 247.997 471.694 249.845 414.318 176.424ZM475.498 244.968 477.494 254.831 468.406 250.51Z"/><path d="M1.09559-1.02454 57.9667 59.7903 55.7755 61.8393-1.09559 1.02454ZM59.1333 56.6455 61.9938 66.2927 52.5598 62.7928Z" transform="matrix(1 0 0 -1 415.5 321.793)"/><rect x="733.5" y="360.5" width="296" height="103" stroke="#000000" stroke-width="3" stroke-miterlimit="8" fill="#FFFFFF"/><text font-family="DFKai-SB,DFKai-SB_MSFontService,sans-serif" font-weight="400" font-size="27" transform="translate(740.045 406)">方向損失<tspan font-family="Times New Roman,Times New Roman_MSFontService,sans-serif" font-size="27" x="106.667" y="0">(Direction Loss)</tspan><tspan font-family="Times New Roman,Times New Roman_MSFontService,sans-serif" font-size="24" x="31.5933" y="29">L=</tspan><tspan font-family="Times New Roman,Times New Roman_MSFontService,sans-serif" font-size="24" x="59.76" y="29">-</tspan><tspan font-family="Times New Roman,Times New Roman_MSFontService,sans-serif" font-size="24" x="67.76" y="29">cos(</tspan><tspan font-family="Cambria Math,Cambria Math_MSFontService,sans-serif" font-size="24" x="107.76" y="29">𝑑</tspan><tspan font-family="Cambria Math,Cambria Math_MSFontService,sans-serif" font-size="18" x="121.593" y="34">𝑖𝑚𝑎𝑔𝑒</tspan><tspan font-family="Cambria Math,Cambria Math_MSFontService,sans-serif" font-size="24" x="177.613" y="29">,</tspan><tspan font-family="Cambria Math,Cambria Math_MSFontService,sans-serif" font-size="24" x="186.613" y="29">𝑑</tspan><tspan font-family="Cambria Math,Cambria Math_MSFontService,sans-serif" font-size="18" x="200.447" y="34">𝑡𝑒𝑥𝑡</tspan><tspan font-family="Times New Roman,Times New Roman_MSFontService,sans-serif" font-size="24" x="237.073" y="29">)</tspan></text><path d="M1.35072-0.65235 41.0371 81.5201 38.3357 82.8248-1.35072 0.65235ZM43.0862 78.8646 42.9481 88.926 34.9819 82.7787Z" transform="matrix(1 0 0 -1 690.5 500.426)"/><path d="M687.567 254.446 785.536 353.663 783.401 355.771 685.433 256.554ZM786.616 350.487 789.738 360.053 780.212 356.811Z"/><text font-family="Cambria Math,Cambria Math_MSFontService,sans-serif" font-weight="400" font-size="21" transform="translate(703.295 493)">𝑑<tspan font-size="15" x="12.3333" y="4">𝑖𝑚𝑎𝑔𝑒</tspan><tspan font-size="21" x="33.0663" y="-199">𝑑</tspan><tspan font-size="15" x="45.3997" y="-194">𝑡𝑒𝑥𝑡</tspan></text><rect x="1090.5" y="334.5" width="167" height="153" stroke="#000000" stroke-width="3" stroke-miterlimit="8" fill="#FFFFFF"/><text font-family="DFKai-SB,DFKai-SB_MSFontService,sans-serif" font-weight="400" font-size="27" transform="translate(1108.25 470)">優化後字型</text><g clip-path="url(#clip4)"><g clip-path="url(#clip5)"><g clip-path="url(#clip6)"><path d="M1172.19 348.265C1172.28 353.936 1169.2 363.043 1170.45 373.093 1163.07 378.678 1154.58 376.065 1146.51 376.824 1145.15 377.847 1144.1 378.707 1142.78 379.399 1142.79 379.619 1142.98 379.927 1143.66 380.492 1144.18 379.744 1144.27 380.431 1145.65 380.661 1146.38 381.095 1147.74 376.845 1147.5 379.375 1154.91 378.661 1162.81 374.756 1170.79 374.841 1171.07 376.684 1171.2 377.927 1171.83 380.383 1166.87 390.893 1164.91 400.729 1157.65 407.37 1151.88 410.093 1146.13 415.417 1142.77 422.129 1141.9 426.273 1142.51 428.958 1143.52 431 1144.68 430.681 1146.14 430.284 1144.88 429.506 1147.38 424.024 1149.41 417.746 1154.75 413.838 1159.48 409.411 1165.85 406.02 1169.59 400.011 1171.39 400.868 1173.62 401.164 1176.95 401.886 1178.64 413.976 1173.93 428.676 1172.74 439.793 1173.64 439.503 1174.08 439.256 1175.01 438.544 1175.1 437.029 1175.12 436.801 1177.26 437.221 1179.29 426.974 1177.96 414.075 1180.23 401.79 1189 402.796 1192.86 411.082 1203.57 418.45 1215.44 422.316 1221.23 416.645 1225.13 421.562 1225.85 421.769 1228.79 420.389 1229.05 419.751 1214.2 417.235 1193.35 408.109 1177.69 400.208 1177.37 392.627 1176.49 386.338 1175.16 378.311 1175.16 375.649 1175.49 375.362 1174.75 374.096 1178.91 373.019 1192.23 370.033 1196.22 374.516 1195.12 377.043 1193.12 373.559 1194.76 372.201 1195.65 372.354 1196.47 371.784 1196.88 371.592 1191.09 373.174 1179.48 375.304 1175.08 373.03 1175.69 362.686 1173.28 353.952 1173.39 347.812 1173.23 347.858 1172.54 347.978 1172.19 348.265M1173.09 390.374C1173.3 392.428 1173.63 394.337 1174.2 396.723 1174 396.948 1173.59 397.261 1173.03 398.13 1172.01 397.999 1171.36 397.9 1170.06 397.802 1169.95 394.819 1170.95 392.601 1173.09 390.374"/></g></g></g><path d="M0.0307992-1.49968 53.8515-0.394362 53.7899 2.60501-0.0307992 1.49968ZM52.4135-3.42453 61.3192 1.25932 52.2287 5.57357Z" transform="matrix(1 0 0 -1 1029.5 411.759)"/><path d="M883.296 463.609 883.078 466.601 880.086 466.384 880.303 463.391ZM882.861 469.593 882.726 471.459 882.453 472.761 879.517 472.146 879.769 470.942 879.741 471.141 879.869 469.376ZM881.837 475.697 881.221 478.634 878.285 478.018 878.901 475.082ZM880.265 481.677 879.275 484.509 876.443 483.519 877.433 480.687ZM878.202 487.491 876.896 490.192 874.195 488.886 875.501 486.185ZM875.59 492.893 874.554 495.034 874.15 495.692 871.594 494.121 871.959 493.527 871.887 493.66 872.889 491.587ZM872.578 498.248 871.007 500.804 868.452 499.233 870.023 496.677ZM869.301 503.435 867.501 505.835 865.101 504.035 866.901 501.635ZM865.701 508.235 864.091 510.382 863.809 510.705 861.55 508.73 861.795 508.45 861.724 508.538 863.301 506.435ZM861.835 512.964 859.861 515.222 857.602 513.248 859.576 510.989ZM857.887 517.481 857.519 517.902 855.709 519.696 853.597 517.566 855.368 515.81 855.295 515.888 855.628 515.507ZM853.579 521.809 851.449 523.921 849.336 521.791 851.467 519.678ZM849.207 526.046 846.953 528.026 844.973 525.773 847.227 523.793ZM844.7 530.007 842.446 531.987 840.466 529.734 842.72 527.753ZM840.053 533.93 837.693 535.782 835.841 533.422 838.201 531.57ZM835.333 537.634 832.973 539.486 831.121 537.126 833.481 535.274ZM830.461 541.269 828.004 542.991 826.282 540.534 828.739 538.812ZM825.547 544.712 823.09 546.434 821.369 543.977 823.826 542.255ZM820.516 548.095 817.988 549.711 816.373 547.183 818.901 545.567ZM815.46 551.326 812.932 552.942 811.317 550.414 813.845 548.798ZM810.307 554.514 807.715 556.025 806.204 553.434 808.795 551.922ZM805.124 557.537 802.533 559.049 801.021 556.457 803.612 554.946ZM799.875 560.551 797.232 561.97 795.813 559.326 798.456 557.907ZM794.589 563.389 791.946 564.808 790.527 562.164 793.17 560.745ZM789.302 566.227 788.987 566.396 786.575 567.59 785.244 564.901 787.634 563.718 787.59 563.741 787.883 563.583ZM783.886 568.921 781.198 570.252 779.867 567.563 782.555 566.232ZM778.509 571.583 776.442 572.606 775.762 572.913 774.526 570.18 775.181 569.883 775.134 569.906 777.178 568.894ZM773.029 574.15 770.296 575.386 769.059 572.653 771.793 571.416ZM767.562 576.623 764.829 577.859 763.593 575.126 766.326 573.889ZM762.037 579.077 759.266 580.228 758.115 577.458 760.886 576.307ZM756.496 581.379 753.726 582.53 752.575 579.76 755.345 578.609ZM750.955 583.681 749.541 584.269 748.124 584.806 747.061 582.001 748.456 581.472 748.411 581.49 749.804 580.911ZM745.318 585.869 742.513 586.932 741.45 584.127 744.255 583.064ZM739.707 587.995 736.902 589.058 735.839 586.252 738.644 585.189ZM734.054 590.104 731.226 591.103 730.226 588.274 733.055 587.275ZM728.397 592.102 725.568 593.101 724.569 590.273 727.398 589.273ZM722.739 594.1 720.592 594.859 719.865 595.093 718.944 592.238 719.652 592.01 719.612 592.023 721.74 591.272ZM717.009 596.014 714.154 596.934 713.234 594.079 716.089 593.158ZM711.299 597.854 708.443 598.775 707.523 595.919 710.378 594.999ZM705.588 599.695 705.428 599.746 702.672 600.554 701.828 597.676 704.565 596.873 704.527 596.885 704.667 596.84ZM699.793 601.398 696.914 602.242 696.07 599.364 698.949 598.52ZM694.036 603.086 691.157 603.93 690.313 601.052 693.192 600.208ZM688.232 604.746 685.333 605.519 684.56 602.62 687.458 601.847ZM682.434 606.292 679.535 607.065 678.762 604.166 681.661 603.393ZM676.637 607.838 673.847 608.581 673.683 608.619 673.017 605.694 673.154 605.662 673.101 605.676 675.864 604.939ZM670.758 609.285 667.833 609.951 667.167 607.026 670.092 606.36ZM664.908 610.617 661.983 611.283 661.317 608.358 664.242 607.692ZM659.058 611.949 656.133 612.615 655.466 609.69 658.392 609.024ZM653.207 613.281 650.282 613.947 649.616 611.022 652.541 610.356ZM647.357 614.613 644.432 615.279 643.766 612.354 646.691 611.688ZM641.507 615.945 640.855 616.094 638.509 616.537 637.952 613.589 640.271 613.151 640.216 613.162 640.841 613.02ZM635.561 617.094 632.614 617.651 632.057 614.703 635.005 614.146ZM629.666 618.207 626.718 618.764 626.161 615.816 629.109 615.26ZM623.734 619.323 620.773 619.809 620.287 616.849 623.248 616.363ZM617.813 620.295 614.853 620.781 614.367 617.821 617.327 617.335ZM611.892 621.268 608.932 621.754 608.446 618.794 611.406 618.307ZM605.935 622.226 602.964 622.645 602.546 619.674 605.517 619.256ZM599.994 623.063 597.023 623.481 596.605 620.51 599.575 620.092ZM594.052 623.899 591.081 624.318 590.663 621.347 593.634 620.929ZM588.068 624.706 585.087 625.047 584.746 622.066 587.727 621.725ZM582.106 625.387 579.126 625.728 578.785 622.747 581.766 622.407ZM576.145 626.069 573.164 626.409 572.824 623.429 575.804 623.088ZM570.147 626.715 567.159 626.989 566.885 624.002 569.872 623.728ZM564.172 627.264 561.185 627.538 560.91 624.551 563.898 624.276ZM558.197 627.813 555.21 628.087 554.935 625.1 557.923 624.825ZM552.181 628.316 549.188 628.516 548.988 625.523 551.981 625.323ZM546.195 628.716 543.201 628.917 543.001 625.923 545.995 625.723ZM540.208 629.117 537.215 629.317 537.015 626.324 540.008 626.124ZM534.176 629.458 531.178 629.574 531.062 626.576 534.06 626.46ZM528.18 629.69 525.183 629.805 525.067 626.807 528.065 626.692ZM522.185 629.921 519.187 630.037 519.071 627.039 522.069 626.923ZM516.151 630.095 513.151 630.137 513.109 627.138 516.109 627.096ZM510.152 630.179 507.152 630.221 507.11 627.222 510.11 627.18ZM504.152 630.263 501.152 630.305 501.111 627.305 504.11 627.263ZM498.124 630.299 495.124 630.284 495.139 627.284 498.139 627.3ZM492.124 630.268 489.124 630.252 489.14 627.252 492.14 627.268ZM486.124 630.236 483.124 630.221 483.14 627.221 486.14 627.237ZM480.124 630.205 477.124 630.189 477.14 627.189 480.14 627.205ZM474.124 630.173 471.124 630.158 471.14 627.158 474.14 627.173ZM468.124 630.142 465.124 630.126 465.14 627.126 468.14 627.142ZM462.106 630.076 459.106 630.022 459.159 627.023 462.159 627.076ZM456.107 629.969 453.107 629.917 453.16 626.917 456.16 626.97ZM450.108 629.864 447.108 629.811 447.161 626.811 450.161 626.864ZM444.109 629.758 441.109 629.705 441.162 626.705 444.162 626.758ZM438.11 629.652 435.11 629.599 435.163 626.599 438.163 626.652ZM432.111 629.546 429.516 629.5 429.097 629.488 429.178 626.49 429.59 626.501 429.576 626.5 432.164 626.546ZM426.098 629.408 423.1 629.327 423.18 626.328 426.179 626.409ZM420.101 629.247 417.102 629.166 417.182 626.167 420.181 626.248ZM414.103 629.085 411.104 629.005 411.185 626.006 414.183 626.086ZM408.105 628.924 405.106 628.844 405.187 625.845 408.186 625.925ZM402.107 628.763 399.108 628.682 399.189 625.683 402.188 625.764ZM396.109 628.602 394.625 628.562 393.093 628.503 393.209 625.505 394.732 625.564 394.715 625.563 396.19 625.603ZM390.096 628.387 387.098 628.271 387.214 625.273 390.211 625.389ZM384.1 628.155 381.102 628.04 381.218 625.042 384.216 625.158ZM378.105 627.924 375.107 627.808 375.223 624.811 378.22 624.926ZM372.109 627.693 369.111 627.577 369.227 624.579 372.225 624.695ZM366.114 627.461 363.116 627.345 363.231 624.348 366.229 624.463ZM360.105 627.225 357.108 627.082 357.251 624.086 360.247 624.228ZM354.112 626.94 351.115 626.797 351.257 623.801 354.254 623.943ZM348.118 626.655 345.122 626.513 345.264 623.516 348.261 623.658ZM342.125 626.37 339.128 626.228 339.271 623.231 342.268 623.373ZM336.132 626.085 333.135 625.943 333.278 622.946 336.274 623.089ZM330.139 625.8 327.72 625.685 327.125 625.651 327.302 622.656 327.888 622.69 327.871 622.689 330.281 622.804ZM324.131 625.474 321.136 625.298 321.312 622.303 324.307 622.479ZM318.141 625.122 315.146 624.946 315.322 621.951 318.317 622.127ZM312.151 624.77 311.774 624.747 309.155 624.59 309.335 621.595 311.95 621.753 312.328 621.775ZM306.16 624.409 303.166 624.229 303.346 621.234 306.34 621.415ZM300.171 624.048 297.176 623.868 297.357 620.874 300.351 621.054ZM294.169 623.667 291.176 623.458 291.385 620.465 294.378 620.674ZM288.183 623.248 285.191 623.039 285.4 620.046 288.393 620.256ZM282.198 622.83 281.002 622.746 279.196 622.607 279.426 619.616 281.227 619.755 281.217 619.754 282.407 619.837ZM276.205 622.377 273.213 622.147 273.443 619.156 276.435 619.386ZM270.222 621.917 267.231 621.687 267.461 618.696 270.452 618.926ZM264.237 621.452 261.247 621.216 261.483 618.225 264.473 618.461ZM258.256 620.98 255.265 620.744 255.501 617.753 258.492 617.989ZM252.275 620.508 252.11 620.495 249.268 620.234 249.542 617.247 252.374 617.506 252.355 617.505 252.511 617.517ZM246.28 619.96 243.293 619.686 243.567 616.698 246.555 616.972ZM240.306 619.412 238.472 619.244 237.313 619.133 237.598 616.147 238.754 616.257 238.749 616.256 240.58 616.424ZM234.327 618.849 231.34 618.564 231.625 615.578 234.611 615.862ZM228.354 618.28 225.367 617.995 225.652 615.009 228.638 615.293ZM222.37 617.683 219.386 617.371 219.698 614.387 222.682 614.699ZM216.402 617.059 213.419 616.747 213.73 613.764 216.714 614.075ZM210.421 616.408 207.441 616.063 207.786 613.083 210.766 613.428ZM204.461 615.718 201.481 615.372 201.826 612.392 204.806 612.737ZM198.492 615.01 195.515 614.644 195.881 611.666 198.858 612.032ZM192.537 614.278 189.669 613.925 189.54 613.908 189.945 610.935 190.064 610.951 190.045 610.949 192.903 611.3ZM186.568 613.503 183.595 613.099 184 610.126 186.972 610.53ZM180.623 612.694 179.085 612.485 177.629 612.262 178.082 609.297 179.526 609.517 179.502 609.514 181.027 609.721ZM174.663 611.809 171.698 611.355 172.151 608.39 175.117 608.843ZM168.714 610.892 165.754 610.399 166.248 607.439 169.207 607.933ZM162.795 609.905 160.224 609.477 159.805 609.398 160.363 606.45 160.766 606.526 160.734 606.52 163.288 606.946ZM156.857 608.839 153.91 608.281 154.468 605.333 157.416 605.892ZM150.935 607.695 148 607.073 148.622 604.138 151.557 604.76ZM145.065 606.451 144.531 606.338 142.105 605.755 142.807 602.838 145.213 603.417 145.173 603.408 145.687 603.516ZM139.188 605.054 137.978 604.763 136.227 604.257 137.059 601.375 138.778 601.871 138.713 601.854 139.89 602.137ZM133.344 603.424 132.283 603.118 130.418 602.471 131.401 599.637 133.228 600.27 133.153 600.246 134.177 600.542ZM127.583 601.488 127.409 601.428 124.729 599.808 126.281 597.241 128.825 598.779 128.541 598.645 128.566 598.654ZM123.447 602.75 119.487 593.5 129.263 595.882Z"/><text font-family="DFKai-SB,DFKai-SB_MSFontService,sans-serif" font-weight="400" font-size="24" transform="translate(483.006 652)">反向傳播<tspan font-size="24" x="96" y="0">→</tspan>更新控制點</text></g></svg>